Exact Audio Copy V1.0 beta 2 from 29. April 2011

Archivo Log de extracciones desde 10. Agosto 2011, 18:53

Enanitos Verdes / Tracción Acústica

Usar unidad  : HL-DT-STDVDRAM GP10NB20   Adapter: 2  ID: 1

Modo de Lectura   :        : Seguro
Utilizar corriente precisa : Sí
Caché de audio por defecto : No
Utilizar los punteros C2   : No

Corrección de Desplazamiento de Lectura :     : 6
Sobreleer tanto en Lead-In como en Lead-Out   : No
Rellenar las muestras faltantes con silencios : Sí
Eliminar silencios inicial y final            : No
Muestras nulas usadas en los calculos de CRC  : No
Interfaz usada                                : Interfaz propio de Win32 para Windowns NT y 2000
Manejo de huecos                              : No se detectó, por lo que anexa a la pista anterior

Formato de Salida utilizado :                : Compresor definido por el Usuario
Velocidad de bits seleccionada               : 896 kBit/s
Calidad                                      : Alta
Añadir ID3 tag                               : No
linea de comandos del compresor              : C:\Program Files (x86)\Exact Audio Copy\FLAC\FLAC.EXE
Opciones adicionales en línea de comandos :  : -6 -V -T "ARTIST=%artist%" -T "TITLE=%title%" -T "ALBUM=%albumtitle%" -T "DATE=%year%" -T "TRACKNUMBER=%tracknr%" -T "GENRE=%genre%" -T "COMMENT=%comment%" -T "BAND=%albuminterpret%" -T "COMPOSER=%composer%" %h


TOC extraídos del CD

     Pista |  Inicio  | Longitud | Inicio del sector | Fin del sector 
    ------------------------------------------------------------------
        1  |  0:00.00 |  5:08.32 |           0       |      23131     
        2  |  5:08.32 |  3:20.00 |       23132       |      38131     
        3  |  8:28.32 |  4:06.13 |       38132       |      56594     
        4  | 12:34.45 |  3:38.60 |       56595       |      73004     
        5  | 16:13.30 |  4:24.22 |       73005       |      92826     
        6  | 20:37.52 |  3:31.23 |       92827       |     108674     
        7  | 24:09.00 |  4:04.15 |      108675       |     126989     
        8  | 28:13.15 |  3:13.20 |      126990       |     141484     
        9  | 31:26.35 |  4:10.35 |      141485       |     160269     
       10  | 35:36.70 |  4:31.57 |      160270       |     180651     
       11  | 40:08.52 |  4:20.00 |      180652       |     200151     
       12  | 44:28.52 |  3:50.13 |      200152       |     217414     


Pista  1

     Nombre de Archivo D:\Torrent\Enanitos Verdes - Tracción Acústica\01 Por El Resto - Enanitos Verdes.wav

     Nivel Pico 100.0 %
     Velocidad de extracción 4.1 X
     Calidad de Pista 99.9 %
     Copiar CRC AF5CF142
     Pista sin datos en Accuraterip
     Copia OK

Pista  2

     Nombre de Archivo D:\Torrent\Enanitos Verdes - Tracción Acústica\02 Te Ví en Un Tren - Enanitos Verdes.wav

     Nivel Pico 99.5 %
     Velocidad de extracción 2.7 X
     Calidad de Pista 100.0 %
     Copiar CRC 765442DA
     Pista sin datos en Accuraterip
     Copia OK

Pista  3

     Nombre de Archivo D:\Torrent\Enanitos Verdes - Tracción Acústica\03 El Guerrero - Enanitos Verdes.wav

     Nivel Pico 99.3 %
     Velocidad de extracción 3.7 X
     Calidad de Pista 100.0 %
     Copiar CRC ED34E0AE
     Pista sin datos en Accuraterip
     Copia OK

Pista  4

     Nombre de Archivo D:\Torrent\Enanitos Verdes - Tracción Acústica\04 La Muralla Verde - Enanitos Verdes.wav

     Nivel Pico 99.5 %
     Velocidad de extracción 3.9 X
     Calidad de Pista 99.9 %
     Copiar CRC C4194719
     Pista sin datos en Accuraterip
     Copia OK

Pista  5

     Nombre de Archivo D:\Torrent\Enanitos Verdes - Tracción Acústica\05 Sólo Dame Otra Oportunidad - Enanitos Verdes.wav

     Nivel Pico 99.8 %
     Velocidad de extracción 4.9 X
     Calidad de Pista 99.9 %
     Copiar CRC EA377391
     Pista sin datos en Accuraterip
     Copia OK

Pista  6

     Nombre de Archivo D:\Torrent\Enanitos Verdes - Tracción Acústica\06 Guitarra Blancas - Enanitos Verdes.wav

     Nivel Pico 99.9 %
     Velocidad de extracción 4.3 X
     Calidad de Pista 100.0 %
     Copiar CRC 30174CD9
     Pista sin datos en Accuraterip
     Copia OK

Pista  7

     Nombre de Archivo D:\Torrent\Enanitos Verdes - Tracción Acústica\07 Cada Vez Que Digo Adiós - Enanitos Verdes.wav

     Nivel Pico 99.9 %
     Velocidad de extracción 3.3 X
     Calidad de Pista 100.0 %
     Copiar CRC C57DDB1A
     Pista sin datos en Accuraterip
     Copia OK

Pista  8

     Nombre de Archivo D:\Torrent\Enanitos Verdes - Tracción Acústica\08 El Extraño del Pelo Largo - Enanitos Verdes.wav

     Nivel Pico 98.9 %
     Velocidad de extracción 3.6 X
     Calidad de Pista 100.0 %
     Copiar CRC 96527CDE
     Pista sin datos en Accuraterip
     Copia OK

Pista  9

     Nombre de Archivo D:\Torrent\Enanitos Verdes - Tracción Acústica\09 Tus Viejas Cartas - Enanitos Verdes.wav

     Nivel Pico 94.6 %
     Velocidad de extracción 3.7 X
     Calidad de Pista 100.0 %
     Copiar CRC CE395E71
     Pista sin datos en Accuraterip
     Copia OK

Pista 10

     Nombre de Archivo D:\Torrent\Enanitos Verdes - Tracción Acústica\10 No Me Verás,Metro Bladeras - Enanitos Verdes.wav

     Nivel Pico 99.6 %
     Velocidad de extracción 3.8 X
     Calidad de Pista 100.0 %
     Copiar CRC E6C79CA8
     Pista sin datos en Accuraterip
     Copia OK

Pista 11

     Nombre de Archivo D:\Torrent\Enanitos Verdes - Tracción Acústica\11 Aún Sigo Cantando - Enanitos Verdes.wav

     Nivel Pico 99.5 %
     Velocidad de extracción 4.0 X
     Calidad de Pista 100.0 %
     Copiar CRC 200908F9
     Pista sin datos en Accuraterip
     Copia OK

Pista 12

     Nombre de Archivo D:\Torrent\Enanitos Verdes - Tracción Acústica\12 Fiesta Jurasica - Enanitos Verdes.wav

     Nivel Pico 99.5 %
     Velocidad de extracción 4.2 X
     Calidad de Pista 100.0 %
     Copiar CRC A8F388DC
     Pista sin datos en Accuraterip
     Copia OK


Ninguna pista tiene datos en AccurateRip

Sin Errores

Final del Informe
